<svg width="167" height="116" viewBox="0 0 167 116" fill="none" xmlns="http://www.w3.org/2000/svg">
<g filter="url(#filter0_d)">
<path d="M58.46 60.16V65H56.48V60.12L50.92 51H53.06L57.54 58.38L62.04 51H64.02L58.46 60.16ZM73.7638 65.16C72.3504 65.16 71.0771 64.8533 69.9438 64.24C68.8104 63.6133 67.9171 62.7533 67.2638 61.66C66.6238 60.5667 66.3038 59.3467 66.3038 58C66.3038 56.6533 66.6238 55.4333 67.2638 54.34C67.9171 53.2467 68.8104 52.3933 69.9438 51.78C71.0771 51.1533 72.3504 50.84 73.7638 50.84C75.1638 50.84 76.4304 51.1533 77.5638 51.78C78.6971 52.3933 79.5838 53.2467 80.2238 54.34C80.8638 55.42 81.1838 56.64 81.1838 58C81.1838 59.36 80.8638 60.5867 80.2238 61.68C79.5838 62.76 78.6971 63.6133 77.5638 64.24C76.4304 64.8533 75.1638 65.16 73.7638 65.16ZM73.7638 63.38C74.7904 63.38 75.7104 63.1467 76.5238 62.68C77.3504 62.2133 77.9971 61.5733 78.4638 60.76C78.9438 59.9333 79.1838 59.0133 79.1838 58C79.1838 56.9867 78.9438 56.0733 78.4638 55.26C77.9971 54.4333 77.3504 53.7867 76.5238 53.32C75.7104 52.8533 74.7904 52.62 73.7638 52.62C72.7371 52.62 71.8038 52.8533 70.9638 53.32C70.1371 53.7867 69.4838 54.4333 69.0038 55.26C68.5371 56.0733 68.3038 56.9867 68.3038 58C68.3038 59.0133 68.5371 59.9333 69.0038 60.76C69.4838 61.5733 70.1371 62.2133 70.9638 62.68C71.8038 63.1467 72.7371 63.38 73.7638 63.38ZM95.9406 57.92H97.8606V63.38C97.1673 63.9533 96.3606 64.3933 95.4406 64.7C94.5206 65.0067 93.5606 65.16 92.5606 65.16C91.1473 65.16 89.874 64.8533 88.7406 64.24C87.6073 63.6133 86.714 62.76 86.0606 61.68C85.4206 60.5867 85.1006 59.36 85.1006 58C85.1006 56.64 85.4206 55.4133 86.0606 54.32C86.714 53.2267 87.6073 52.3733 88.7406 51.76C89.8873 51.1467 91.174 50.84 92.6006 50.84C93.7206 50.84 94.734 51.0267 95.6406 51.4C96.5606 51.76 97.3406 52.2933 97.9806 53L96.7406 54.24C95.6206 53.16 94.2673 52.62 92.6806 52.62C91.614 52.62 90.654 52.8533 89.8006 53.32C88.9606 53.7733 88.3006 54.4133 87.8206 55.24C87.3406 56.0533 87.1006 56.9733 87.1006 58C87.1006 59.0133 87.3406 59.9333 87.8206 60.76C88.3006 61.5733 88.9606 62.2133 89.8006 62.68C90.654 63.1467 91.6073 63.38 92.6606 63.38C93.914 63.38 95.0073 63.08 95.9406 62.48V57.92ZM112.61 61.5H105.17L103.63 65H101.57L107.91 51H109.89L116.25 65H114.15L112.61 61.5ZM111.91 59.9L108.89 53.04L105.87 59.9H111.91Z" fill="url(#paint0_linear)"/>
</g>
<path d="M18.6099 70.0528C18.3936 70.3775 17.951 70.4679 17.6214 70.2548C17.288 70.0394 16.9689 69.803 16.6665 69.547L15.7736 68.7938C15.4737 68.5413 15.4385 68.097 15.6952 67.8019C15.9515 67.5064 16.4025 67.4716 16.7021 67.7245L17.5949 68.4788C17.8513 68.6952 18.1212 68.8955 18.4037 69.0783C18.734 69.291 18.8265 69.7278 18.6099 70.0528ZM24.4521 70.259C24.0103 70.3328 23.5631 70.3703 23.115 70.3703H22.7857C22.0086 70.3703 21.2354 70.2583 20.4915 70.0373C20.1134 69.9257 19.7151 70.1366 19.6014 70.5088C19.4877 70.8812 19.7022 71.274 20.0799 71.3856C20.9578 71.6454 21.8691 71.7777 22.7857 71.7777H23.115C23.643 71.7777 24.17 71.7337 24.6907 71.6468C25.0796 71.5818 25.3415 71.2187 25.2756 70.8355C25.2097 70.4521 24.841 70.1944 24.4521 70.259ZM45.2972 67.7259L44.4044 68.4801C44.148 68.6966 43.8777 68.8969 43.5956 69.0797C43.266 69.2934 43.1746 69.7302 43.3915 70.0549C43.6085 70.3799 44.0518 70.4699 44.3813 70.2562C44.7148 70.0422 45.0336 69.8071 45.3363 69.5525L46.2291 68.799C46.5291 68.5464 46.5643 68.1022 46.308 67.8067C46.0513 67.5115 45.6007 67.4768 45.3007 67.7294L45.2972 67.7259ZM41.5113 70.0387C40.7663 70.2597 39.9924 70.3713 39.2143 70.3703H38.885C38.4369 70.37 37.9897 70.3328 37.5479 70.259C37.159 70.1944 36.7903 70.4521 36.7244 70.8355C36.6585 71.2187 36.9204 71.5818 37.3093 71.6468C37.83 71.7337 38.357 71.7777 38.885 71.7777H39.2143C40.1309 71.7777 41.0422 71.6454 41.9201 71.3856C42.2978 71.274 42.5123 70.8812 42.3986 70.5088C42.2849 70.1366 41.8866 69.9257 41.5085 70.0373L41.5113 70.0387ZM47.8963 63.5044C48.0546 63.6381 48.1456 63.8332 48.1456 64.0384C48.1456 64.2438 48.0546 64.4387 47.8963 64.5727L45.3394 66.7329C43.6325 68.1712 41.4604 68.9619 39.2143 68.9629H38.8857C37.9162 68.9636 36.9521 68.8158 36.0286 68.5251C35.4803 71.4506 33.839 74.0675 31.4286 75.859C31.1747 76.047 30.8253 76.047 30.5714 75.859C28.1596 74.0678 26.5176 71.4506 25.9686 68.5245C25.0451 68.8158 24.0811 68.9636 23.1115 68.9629H22.7857C20.5407 68.9608 18.3703 68.1699 16.6644 66.7322L14.1065 64.5709C13.9482 64.4373 13.8571 64.2425 13.8571 64.037C13.8571 63.8315 13.9482 63.6367 14.1065 63.503L16.6637 61.3424C17.5416 60.6037 18.5506 60.0312 19.6401 59.6536C18.9614 58.5094 18.5024 57.2522 18.2859 55.9444L17.1213 48.6682C17.0861 48.4459 17.1607 48.2205 17.3218 48.0614C17.4833 47.9023 17.7125 47.8288 17.9378 47.8639L23.0536 48.659L24.6886 44.7711C24.7762 44.5632 24.9589 44.4093 25.1807 44.3567C25.4026 44.3024 25.6373 44.3577 25.8106 44.5044L27.5834 45.9885L30.3799 41.1667C30.5176 40.9615 30.7503 40.8378 31 40.8378C31.2497 40.8378 31.4824 40.9615 31.6201 41.1667L34.4148 45.9819L36.188 44.4979C36.362 44.3526 36.5961 44.2976 36.8179 44.3505C37.0397 44.4034 37.2228 44.5577 37.31 44.7652L38.9656 48.7126L44.4602 47.858C44.6858 47.8209 44.9157 47.8944 45.0765 48.0552C45.2379 48.2143 45.3126 48.4401 45.277 48.6624L44.1114 55.9389C43.8899 57.2955 43.4048 58.5974 42.6828 59.7732C43.6475 60.1494 44.5428 60.6796 45.3328 61.3424L47.8963 63.5044ZM37.2999 50.3986C32.9109 51.0814 29.5864 54.6659 29.2907 59.0338L29.2642 59.4334C29.1871 60.5697 29.6115 61.6833 30.4287 62.4887C30.7301 62.7863 31.0774 63.0347 31.4579 63.225C31.4677 63.2285 31.4757 63.2326 31.4851 63.2367C32.1175 63.548 32.8234 63.6862 33.5286 63.6367L33.9342 63.6099C36.8834 63.4085 39.5725 61.876 41.2201 59.4581C41.9835 58.3325 42.4886 57.0567 42.6999 55.7193L43.7141 49.4001L37.2999 50.3986ZM35.1364 47.2275L35.6059 48.037C35.82 48.4013 36.0206 48.7912 36.2187 49.1902C36.5043 49.1197 36.79 49.0538 37.0756 49.0094L37.5137 48.939L36.3634 46.1946L35.1364 47.2275ZM27.227 49.4795C28.7208 49.9846 30.0789 50.8164 31.1998 51.9122C31.6658 51.4586 32.1726 51.0477 32.7142 50.6848C33.3797 50.2495 34.0915 49.887 34.8372 49.6042C34.6851 49.3056 34.5292 49.0149 34.3657 48.7342L31 42.9366L27.6343 48.7363C27.5001 48.9778 27.3623 49.2235 27.227 49.4815V49.4795ZM24.5066 48.8792L25.3192 49.006C25.4835 49.029 25.6509 49.0579 25.8263 49.094C26.0136 48.7273 26.2005 48.3741 26.392 48.0384L26.8636 47.2248L25.6341 46.1981L24.5066 48.8792ZM19.6987 55.7207C19.9129 57.0567 20.4179 58.3311 21.1793 59.4567L21.3223 59.6543C22.1115 60.7655 23.1383 61.6926 24.3308 62.3705C25.1274 62.8213 25.986 63.156 26.88 63.3642C27.3979 63.4913 27.9266 63.5728 28.4592 63.6071L28.8728 63.636C29.1044 63.6466 29.3367 63.6387 29.5672 63.6119C29.5184 63.5676 29.4671 63.5274 29.4208 63.481C28.3113 62.3894 27.7355 60.8789 27.8408 59.3375L27.867 58.9379C28.0253 56.7519 28.8533 54.6648 30.2414 52.9523C29.0769 51.8077 27.6232 50.9903 26.0307 50.5842C25.7248 50.5058 25.4148 50.4433 25.1023 50.3966L18.6873 49.4001L19.6987 55.7207ZM26.255 66.9222C27.1897 66.5309 28.0386 65.9653 28.755 65.2564L28.9694 65.0455C28.907 65.0455 28.8442 65.0455 28.7815 65.0396L28.3692 65.0108C27.7554 64.9709 27.1468 64.8764 26.55 64.7293C24.133 64.1744 21.9867 62.8093 20.4786 60.8676C19.4197 61.1772 18.4383 61.7008 17.5963 62.4052L15.6687 64.037L17.597 65.6639C19.0434 66.8824 20.8828 67.5531 22.7857 67.5555H23.1143C24.1941 67.5565 25.2627 67.3411 26.255 66.9222ZM34.6778 67.9778C33.7752 67.5366 32.9514 66.9545 32.2378 66.2536L31 65.0321L29.7622 66.2515C29.049 66.9531 28.2248 67.5362 27.3222 67.9778C27.7181 70.4864 29.0249 72.7683 31 74.3991C32.9751 72.7683 34.2819 70.4864 34.6778 67.9778ZM46.3313 64.037L44.4065 62.41C43.6496 61.7795 42.7808 61.2919 41.8444 60.9724C39.9258 63.334 37.0934 64.7991 34.0308 65.0138L33.6249 65.0403C33.5042 65.0482 33.3828 65.0516 33.2621 65.0516C33.1844 65.0516 33.1066 65.0441 33.0285 65.0403L33.2478 65.2564C33.9632 65.9646 34.8107 66.5302 35.7437 66.9222C36.7366 67.3411 37.8059 67.5565 38.8864 67.5555H39.215C41.1193 67.5538 42.9608 66.8827 44.4079 65.6633L46.3313 64.037ZM11 64.7407H12.4286V63.3333H11V64.7407ZM16.7143 45.7407H15.2857V47.1481H16.7143V45.7407ZM31.7143 39.4074V38H30.2857V39.4074H31.7143ZM46.7143 45.7407H45.2857V47.1481H46.7143V45.7407ZM49.5714 64.7407H51V63.3333H49.5714V64.7407Z" fill="url(#paint1_linear)"/>
<defs>
<filter id="filter0_d" x="0.919983" y="0.839966" width="165.33" height="114.32" filterUnits="userSpaceOnUse" color-interpolation-filters="sRGB">
<feFlood flood-opacity="0" result="BackgroundImageFix"/>
<feColorMatrix in="SourceAlpha" type="matrix" values="0 0 0 0 0 0 0 0 0 0 0 0 0 0 0 0 0 0 127 0"/>
<feOffset/>
<feGaussianBlur stdDeviation="25"/>
<feColorMatrix type="matrix" values="0 0 0 0 0.482353 0 0 0 0 0.47451 0 0 0 0 0.631373 0 0 0 0.7 0"/>
<feBlend mode="normal" in2="BackgroundImageFix" result="effect1_dropShadow"/>
<feBlend mode="normal" in="SourceGraphic" in2="effect1_dropShadow" result="shape"/>
</filter>
<linearGradient id="paint0_linear" x1="52.5" y1="73.5" x2="118.5" y2="47" gradientUnits="userSpaceOnUse">
<stop stop-color="#807DA4"/>
<stop offset="1" stop-color="#D2BFDD"/>
</linearGradient>
<linearGradient id="paint1_linear" x1="17.25" y1="70.8981" x2="44.3395" y2="43.4011" gradientUnits="userSpaceOnUse">
<stop stop-color="#7C7AA2"/>
<stop offset="1" stop-color="#D4C1DE"/>
</linearGradient>
</defs>
</svg>
