<svg width="167" height="116" viewBox="0 0 167 116" fill="none" xmlns="http://www.w3.org/2000/svg">
<g filter="url(#filter0_d)">
<path d="M58.46 60.16V65H56.48V60.12L50.92 51H53.06L57.54 58.38L62.04 51H64.02L58.46 60.16ZM73.7638 65.16C72.3504 65.16 71.0771 64.8533 69.9438 64.24C68.8104 63.6133 67.9171 62.7533 67.2638 61.66C66.6238 60.5667 66.3038 59.3467 66.3038 58C66.3038 56.6533 66.6238 55.4333 67.2638 54.34C67.9171 53.2467 68.8104 52.3933 69.9438 51.78C71.0771 51.1533 72.3504 50.84 73.7638 50.84C75.1638 50.84 76.4304 51.1533 77.5638 51.78C78.6971 52.3933 79.5838 53.2467 80.2238 54.34C80.8638 55.42 81.1838 56.64 81.1838 58C81.1838 59.36 80.8638 60.5867 80.2238 61.68C79.5838 62.76 78.6971 63.6133 77.5638 64.24C76.4304 64.8533 75.1638 65.16 73.7638 65.16ZM73.7638 63.38C74.7904 63.38 75.7104 63.1467 76.5238 62.68C77.3504 62.2133 77.9971 61.5733 78.4638 60.76C78.9438 59.9333 79.1838 59.0133 79.1838 58C79.1838 56.9867 78.9438 56.0733 78.4638 55.26C77.9971 54.4333 77.3504 53.7867 76.5238 53.32C75.7104 52.8533 74.7904 52.62 73.7638 52.62C72.7371 52.62 71.8038 52.8533 70.9638 53.32C70.1371 53.7867 69.4838 54.4333 69.0038 55.26C68.5371 56.0733 68.3038 56.9867 68.3038 58C68.3038 59.0133 68.5371 59.9333 69.0038 60.76C69.4838 61.5733 70.1371 62.2133 70.9638 62.68C71.8038 63.1467 72.7371 63.38 73.7638 63.38ZM95.9406 57.92H97.8606V63.38C97.1673 63.9533 96.3606 64.3933 95.4406 64.7C94.5206 65.0067 93.5606 65.16 92.5606 65.16C91.1473 65.16 89.874 64.8533 88.7406 64.24C87.6073 63.6133 86.714 62.76 86.0606 61.68C85.4206 60.5867 85.1006 59.36 85.1006 58C85.1006 56.64 85.4206 55.4133 86.0606 54.32C86.714 53.2267 87.6073 52.3733 88.7406 51.76C89.8873 51.1467 91.174 50.84 92.6006 50.84C93.7206 50.84 94.734 51.0267 95.6406 51.4C96.5606 51.76 97.3406 52.2933 97.9806 53L96.7406 54.24C95.6206 53.16 94.2673 52.62 92.6806 52.62C91.614 52.62 90.654 52.8533 89.8006 53.32C88.9606 53.7733 88.3006 54.4133 87.8206 55.24C87.3406 56.0533 87.1006 56.9733 87.1006 58C87.1006 59.0133 87.3406 59.9333 87.8206 60.76C88.3006 61.5733 88.9606 62.2133 89.8006 62.68C90.654 63.1467 91.6073 63.38 92.6606 63.38C93.914 63.38 95.0073 63.08 95.9406 62.48V57.92ZM112.61 61.5H105.17L103.63 65H101.57L107.91 51H109.89L116.25 65H114.15L112.61 61.5ZM111.91 59.9L108.89 53.04L105.87 59.9H111.91Z" fill="url(#paint0_linear)"/>
</g>
<defs>
<filter id="filter0_d" x="0.919983" y="0.839966" width="165.33" height="114.32" filterUnits="userSpaceOnUse" color-interpolation-filters="sRGB">
<feFlood flood-opacity="0" result="BackgroundImageFix"/>
<feColorMatrix in="SourceAlpha" type="matrix" values="0 0 0 0 0 0 0 0 0 0 0 0 0 0 0 0 0 0 127 0"/>
<feOffset/>
<feGaussianBlur stdDeviation="25"/>
<feColorMatrix type="matrix" values="0 0 0 0 0.482353 0 0 0 0 0.47451 0 0 0 0 0.631373 0 0 0 0.7 0"/>
<feBlend mode="normal" in2="BackgroundImageFix" result="effect1_dropShadow"/>
<feBlend mode="normal" in="SourceGraphic" in2="effect1_dropShadow" result="shape"/>
</filter>
<linearGradient id="paint0_linear" x1="52.5" y1="73.5" x2="118.5" y2="47" gradientUnits="userSpaceOnUse">
<stop stop-color="#807DA4"/>
<stop offset="1" stop-color="#D2BFDD"/>
</linearGradient>
</defs>
</svg>
